# xmcd
#
# Track frame offsets: 
#        150
#        11857
#        27082
#        47658
#        59548
#        70909
#        81912
#        96210
#        107406
#        119858
#        129491
#        143930
#        153744
#        165543
#
# Disc length: 2325 seconds
#
# Revision: 0
# Processed by: cddbd v1.5.1PL0 Copyright (c) Steve Scherf et al.
# Submitted via: ExactAudioCopy v0.95a3
#
DISCID=c509130e
DTITLE=Jake Hooker - You Had A Call
DYEAR=2002
DGENRE=
TTITLE0=Tonight I'm Going Home To AN Angel
TTITLE1=Your's and His
TTITLE2=Sing A Sad Song
TTITLE3=Believing It Yourself
TTITLE4=Hangin'On To One And Hangin' Round Another
TTITLE5=You Had A Call
TTITLE6=Lord, I Hate To See Myself This Way
TTITLE7=Forget The PAst
TTITLE8=Mixin' Memories
TTITLE9=Step By Step
TTITLE10=Turn To The WIne
TTITLE11=Tonight We Steal Heaven
TTITLE12=The End
TTITLE13=There's Not Any Like You Left
EXTD=
EXTT0=
EXTT1=
EXTT2=
EXTT3=
EXTT4=
EXTT5=
EXTT6=
EXTT7=
EXTT8=
EXTT9=
EXTT10=
EXTT11=
EXTT12=
EXTT13=
PLAYORDER=
